<?xml version="1.0" encoding="UTF-8"?><svg id="a" xmlns="http://www.w3.org/2000/svg" viewBox="0 0 1000 1000" fill="#fff"><path d="M376.187,249.259c4.934-.435,37.12,35.958,39.689,42.258,4.819,11.815,4.615,29.805,7.707,43.232,6.304,27.382,19.281,53.064,36.858,74.815,90.758,88.163,184.168,173.712,274.359,262.454,26.585,26.158,61.842,57.439,85.223,85.225,59.378,70.563-25.993,162.627-95.024,108.738-14.627-11.419-34.078-37.752-47.1-52.817-85.052-98.398-165.904-203.415-252.673-299.813-33.173-36.855-53.996-58.011-102.887-73.439-17.914-5.653-33.173-4.535-48.083-18.529-3.758-3.527-28.687-30.145-30.016-32.662-2.096-3.969-3.787-7.733-.408-11.64l132.355-127.821Z"/><path d="M852.838,106.323c9.049-.968,18.018,1.132,22.795,9.508,6.891,12.084-4.274,43.888-8.608,57.663-21.359,67.885-53.075,135.989-76.773,203.388-3.944,6.125-9.979,9.723-15.989,13.398-35.628,21.786-80.419,36.834-116.689,57.678-26.328,15.13-35.455,44.962-54.35,67.258l-4.625-.82-54.787-54.688c.944-4.38,48.227-35.702,55.149-50.771,18.979-41.315,24.901-103.278,45.038-143.042,2.646-5.226,7.149-10.064,11.378-14.091,52.688-33.135,136.835-138.997,197.461-145.481Z"/><path d="M439.256,562.627l58.444,66.378-.035,7.722c-42.379,57.838-80.43,118.944-123.617,176.19-22.493,29.815-55.407,76.472-95.807,80.52-52.973,5.308-89.912-36.337-80.398-88.236,6.465-35.267,69.898-93.002,97.043-118.466,46.181-43.321,95.633-83.746,144.37-124.108Z"/><path d="M255.173,118.041c5.054-1.482,11.959-.741,16.125,2.627,25.123,33.711,57.403,64.411,82.337,97.908,3.496,4.697,8.837,9.456,7.963,15.503l-134.095,128.474c-8.211-.754-10.06-8.064-14.82-12.821-23.9-23.888-66.673-60.033-85.318-85.131-6.872-9.25-6.967-14.226,0-23.588,16.451-22.106,58.686-59.787,80.315-80.339,6.735-6.4,42.96-41.304,47.494-42.634Z"/></svg>