<?xml version="1.0" encoding="UTF-8"?><svg id="a" xmlns="http://www.w3.org/2000/svg" viewBox="0 0 1000 1000" fill="#fff"><path d="M245.851,115.32c20.322-2.449,45.359-.454,65.984-.633,88.048-.761,176.989,2.253,264.569,2.207,55.852-.03,114.503-6.447,170.525-2.198,32.132,2.437,51.013,19.368,53.871,51.924l.006,666.266c-1.569,30.964-20.941,51.429-51.924,53.871H251.112c-28.31-1.283-49.452-19.514-51.917-48.001V166.621c2.26-28.72,17.242-47.756,46.657-51.301ZM412.177,219.237c-4.23.07-10.598,2.543-14.074,5.232l-70.513,72.472c-1.73,0-19.948-21.461-24.578-24.367-17.893-11.231-38.185,5.156-29.778,25.861,1.173,2.888,39.789,42.053,43.669,44.494,6.118,3.849,12.281,4.305,19.009,1.538l92.623-93.476c9.036-12.665-.691-32.013-16.357-31.754ZM483.948,304.201c3.534,3.127,9.353,4.21,13.991,4.634,64.641,5.899,138.249-4.623,203.851-.106,26.605-2.42,27.304-40.565,0-43.099l-205.755-.045c-18.207,1.69-25.336,26.893-12.087,38.616ZM406.375,432.567c-12.931,2.934-73.302,75.964-78.785,75.964-9.182-7.253-20.214-24.572-31.802-26.949-23.612-4.845-32.055,21.529-16.271,37.833,6.151,6.354,31.775,31.575,37.385,35.104,6.118,3.849,12.28,4.306,19.009,1.538l93.335-94.718c7.956-15.319-5.512-32.711-22.871-28.772ZM492.572,477.632c-21.415,8.505-20.299,36.079,1.659,42.578l207.605.157c25.445-3.063,27.458-35.731,3.762-43.035l-213.026.301ZM276.345,699.279c-7.103,7.107-6.624,18.613-1.573,26.686,2.89,4.618,34.1,35.677,39.114,39.244,11.597,8.251,17.318,7.646,28.443-.925,15.981-12.312,41.163-40.224,55.818-55.855,6.928-7.389,24.945-24.787,29.269-31.464,11.652-17.995-4.038-39.893-23.903-31.727l-74.316,74.743c-8.51,2.242-22.477-28.226-39.898-26.422-3.71.384-10.29,3.054-12.954,5.72ZM492.572,689.222c-21.415,8.505-20.299,36.079,1.659,42.578l207.605.157c26.482-3.187,27.46-39.311,1.735-42.968l-211,.234Z"/></svg>