<?xml version="1.0" encoding="UTF-8"?><svg id="a" xmlns="http://www.w3.org/2000/svg" viewBox="0 0 1000 1000" fill="#fff"><path d="M375.019,113.462c71.842-5.647,139.279,12.127,197.724,53.837,129.175,92.187,162.726,275.553,66.145,404.101l-.744,4.425,40.989,41.538c17.325.023,28.577-4.272,44.023,6.866l163.281,163.901c18.776,33.52-5.905,60.086-29.27,81.765-24.475,22.71-48.42,23.612-74.272,2.184-45.72-37.896-96.863-96.783-140.005-140.156-9.066-9.114-17.508-11.15-20.158-26.864-1.319-7.821,1.677-24.218-.635-28.574-3.806-7.173-15.596-14.324-21.37-19.949-7.12-6.937-12.742-17.191-22.832-22.294-32.528,22.534-67.097,42.323-105.663,52.515-223.747,59.131-427.457-160.202-347.631-378.977,38.217-104.739,137.806-185.463,250.416-194.316ZM394.593,197.707c-172.832,6.465-268.25,209.538-154.31,343.194,97.035,113.828,277.388,92.744,347.05-38.801,75.163-141.933-34.068-310.329-192.74-304.394Z"/></svg>