<?xml version="1.0" encoding="UTF-8"?><svg id="a" xmlns="http://www.w3.org/2000/svg" viewBox="0 0 1000 1000" fill="#fff"><path d="M283.824,89.353c3.947,3.915,7.96,11.18,9.954,16.495,15.882,68.607,40.803,136.432,52.823,205.788,11.245,64.885,13.306,130.482,12.362,196.29l351.662.009c21.82,3.165,41.207,12.857,50.734,33.51,15.334,33.239,6.915,59.522-34.072,52.664l21.222,312.546c-.971,9.107-5.22,13.632-14.311,14.689-11.22,1.304-36.788,2.75-41.649-9.376l-50.701-308.17-286.925.965-61.544,306.78c-1.845,14.11-46.802,11.333-52.733,7.597-5.977-3.765-5.387-12.179-5.086-18.372,2.575-53.094,18.154-118.325,25.177-172.724,14.757-114.301,28.745-261.861,7.159-374.925-15.759-82.544-43.617-163.201-57.845-245.838,2.045-33.964,54.936-36.613,73.775-17.927Z"/><path d="M648.917,165.052c6.836,40.796,11.765,93.288,50.32,117.212,27.886,17.304,55.067,15.614,83.745,24.009,3.34.978,4.9,1.915,6.969,4.747-20.847,7.842-43.4,8.692-64.533,15.753-43.269,14.457-57.211,38.178-68.081,80.816-3.262,12.796-4.212,31.279-8.422,42.517-1.029,2.746-1.178,4.838-4.864,4.933-2.565.066-9.072-44.49-10.544-50.23-15.138-59.036-40.953-73.424-98.143-86.019-4.81-1.059-33.336-3.937-33.333-7.77,2.07-2.813,3.623-3.78,6.963-4.752,22.309-6.492,44.789-6.484,67.959-16.285,54.418-23.019,55.507-73.772,66.204-124.857l5.759-.073Z"/></svg>